<svg xmlns="http://www.w3.org/2000/svg" viewBox="0 0 400 400">
  <!-- Background -->
  <rect width="400" height="400" fill="#FFFFFF"/>
  
  <!-- Solid Color Circle -->
  <circle cx="200" cy="200" r="180" fill="#3B82F6"/>
  
  <!-- Document Icon -->
  <g transform="translate(200, 200) scale(0.85)">
    <!-- Paper -->
    <path d="M-70,-90 L30,-90 L70,-50 L70,90 L-70,90 Z" fill="white"/>
    
    <!-- Folded Corner -->
    <path d="M30,-90 L70,-50 L30,-50 Z" fill="#E5E7EB"/>
    
    <!-- Lines -->
    <line x1="-40" y1="-50" x2="40" y2="-50" stroke="#94A3B8" stroke-width="8" stroke-linecap="round"/>
    <line x1="-40" y1="-20" x2="40" y2="-20" stroke="#94A3B8" stroke-width="8" stroke-linecap="round"/>
    <!-- Third line - shortened from ending at x=0 to ending at x=-20 -->
    <line x1="-40" y1="10" x2="-20" y2="10" stroke="#94A3B8" stroke-width="8" stroke-linecap="round"/>
    
    <!-- Checkmark -->
    <path d="M10,10 L30,30 L60,-10" stroke="#10B981" stroke-width="10" fill="none" stroke-linecap="round" stroke-linejoin="round"/>
    
    <!-- Bar Chart with reduced height on fourth column -->
    <rect x="-40" y="40" width="15" height="30" fill="#F59E0B" rx="2"/>
    <rect x="-15" y="30" width="15" height="40" fill="#F59E0B" rx="2"/>
    <rect x="10" y="45" width="15" height="25" fill="#F59E0B" rx="2"/>
    <rect x="35" y="40" width="15" height="30" fill="#F59E0B" rx="2"/>
  </g>
  
  <!-- Text -->
  <text x="200" y="340" font-family="Arial, sans-serif" font-size="48" font-weight="bold" text-anchor="middle" fill="white">EXAMUIZ</text>
</svg>
