<svg width="44" height="39" viewBox="0 0 44 39" fill="none" xmlns="http://www.w3.org/2000/svg">
<path d="M19.2952 35.6905L2.11229 6.00449C1.83734 5.52948 1.69235 4.99043 1.6919 4.44159C1.69144 3.89274 1.83554 3.35346 2.10971 2.87799C2.38387 2.40252 2.77841 2.00765 3.25365 1.73309C3.72889 1.45854 4.26806 1.31399 4.8169 1.31399H39.1826C39.7315 1.31399 40.2706 1.45854 40.7459 1.73309C41.2211 2.00764 41.6157 2.40252 41.8898 2.87798C42.164 3.35345 42.3081 3.89274 42.3076 4.44159C42.3072 4.99043 42.1622 5.52948 41.8872 6.00449L24.7044 35.6905C24.4299 36.1647 24.0355 36.5585 23.5608 36.8322C23.0861 37.1059 22.5477 37.25 21.9998 37.25C21.4518 37.25 20.9135 37.1059 20.4388 36.8322C19.964 36.5585 19.5697 36.1647 19.2952 35.6905V35.6905Z" stroke="black" stroke-width="2" stroke-linecap="round" stroke-linejoin="round"/>
</svg>
