<svg width="52" height="47" viewBox="0 0 52 47" fill="none" xmlns="http://www.w3.org/2000/svg">
<path d="M45.3335 30.3476C48.495 26.7184 50.1668 23.5 50.1668 23.5C50.1668 23.5 41.379 6.58333 26.0002 6.58333C25.1755 6.58333 24.3699 6.63197 23.5835 6.72403C22.7565 6.82085 21.9508 6.96569 21.1668 7.1525M4.25016 1.75L13.2368 10.7367M13.2368 10.7367C5.8619 15.7453 1.8335 23.5 1.8335 23.5C1.8335 23.5 10.6214 40.4167 26.0002 40.4167C30.9667 40.4167 35.2458 38.6524 38.7635 36.2633M13.2368 10.7367L20.8736 18.3735M20.8736 18.3735C19.5616 19.6855 18.7502 21.498 18.7502 23.5C18.7502 27.5041 21.9961 30.75 26.0002 30.75C28.0022 30.75 29.8147 29.9385 31.1267 28.6265M20.8736 18.3735L31.1267 28.6265M31.1267 28.6265L38.7635 36.2633M38.7635 36.2633L47.7502 45.25" stroke="#D98E04" stroke-width="2" stroke-linecap="round" stroke-linejoin="round"/>
</svg>
