<?xml version="1.0" encoding="UTF-8"?>
<svg version="1.1" xmlns="http://www.w3.org/2000/svg" width="256" height="256">
<path d="M0 0 C9.53758664 8.24289162 18.73730977 16.91396389 25.3125 27.75 C25.6626416 28.30993652 26.0127832 28.86987305 26.37353516 29.44677734 C32.75741588 39.73116296 37.06426464 50.10507623 40.3125 61.75 C40.6528125 62.91273437 40.993125 64.07546875 41.34375 65.2734375 C48.5974536 94.62407151 41.94914802 126.47435633 26.65234375 152.0703125 C18.26491933 165.55244875 5.9311773 178.48633301 -7.6875 186.75 C-8.24743652 187.1001416 -8.80737305 187.4502832 -9.38427734 187.81103516 C-19.65327577 194.18536452 -30.03192366 198.57697559 -41.6875 201.75 C-42.9353125 202.0903125 -44.183125 202.430625 -45.46875 202.78125 C-75.88580633 209.68259891 -107.68848656 203.21923457 -133.91113281 186.90576172 C-138.5276201 183.90212636 -142.63891362 180.47189929 -146.6875 176.75 C-147.4623877 176.04665527 -147.4623877 176.04665527 -148.25292969 175.32910156 C-169.26415344 156.06361747 -182.92081535 129.17387917 -184.90869141 100.56689453 C-186.03786615 68.81065683 -178.67785801 38.6301544 -156.6875 14.75 C-156.20796875 14.22809082 -155.7284375 13.70618164 -155.234375 13.16845703 C-115.50747339 -29.58059839 -46.39098887 -36.64215787 0 0 Z M-148.25 24.4375 C-162.83094101 41.74159547 -171.22793536 63.23100274 -172.6875 85.75 C-172.74164063 86.5440625 -172.79578125 87.338125 -172.8515625 88.15625 C-173.79383663 115.91050605 -162.34327906 141.05769684 -144.28515625 161.46484375 C-125.8368395 180.86996136 -100.23046625 191.23629355 -73.83203125 192.93359375 C-44.99514005 193.65771066 -18.44258057 181.59583407 2.3125 162.125 C19.53946666 144.27286116 29.7149393 120.3980794 31.3125 95.75 C31.36664063 94.9559375 31.42078125 94.161875 31.4765625 93.34375 C32.41883663 65.58949395 20.96827906 40.44230316 2.91015625 20.03515625 C-15.95037581 0.19644425 -42.95670084 -10.8106551 -70.125 -11.5 C-100.72611751 -10.73044527 -127.39927248 1.95706045 -148.25 24.4375 Z " fill="#000000" transform="translate(198.6875,37.25)"/>
<path d="M0 0 C8.12914268 7.57200518 13.24254474 18.7820209 14.0859375 29.82421875 C14.50667906 42.4626479 10.95567446 53.4867329 2.8125 63.125 C-6.65621205 73.19809793 -17.24966169 78.01272334 -31 78.5 C-45.15932061 78.14330299 -56.56618533 72.5239722 -66.26953125 62.39453125 C-74.51945134 52.02568432 -77.17405934 40.03420204 -76.125 27.0625 C-74.28799438 15.90153305 -69.11704484 5.13907966 -60.125 -1.9375 C-40.52277399 -15.50827185 -18.61748462 -15.11268706 0 0 Z M-56.8828125 13.23828125 C-62.89295622 21.87604819 -64.02394964 29.63237915 -63.125 40.0625 C-61.24004082 48.66411753 -55.96899068 55.72977078 -48.74609375 60.69921875 C-40.15918932 65.63633513 -31.06652794 66.56985807 -21.30078125 64.44921875 C-12.77323749 61.41036093 -6.23189931 55.81081956 -2.125 47.75 C1.53375036 39.65755563 2.30251442 30.95880775 -0.1875 22.3125 C-3.54138251 13.74671556 -9.90641385 7.03346862 -18.14453125 3.09765625 C-31.96123842 -2.30455178 -47.52953102 1.66099729 -56.8828125 13.23828125 Z " fill="#000000" transform="translate(159.125,63.9375)"/>
<path d="M0 0 C0.95877548 -0.01283524 1.91755096 -0.02567047 2.90538025 -0.03889465 C3.93764236 -0.04628159 4.96990448 -0.05366852 6.03344727 -0.0612793 C7.10675797 -0.06935104 8.18006866 -0.07742279 9.28590393 -0.08573914 C11.56135449 -0.09956887 13.8368257 -0.11029599 16.11230469 -0.11816406 C18.42128651 -0.12964028 20.73024273 -0.15002211 23.0390625 -0.1796875 C42.39187151 -0.4282455 57.98969849 0.59867496 72.91235352 14.42700195 C78.12446744 19.97821726 82.77056275 26.91874583 85.16235352 34.17700195 C84.97485352 37.86450195 84.97485352 37.86450195 84.16235352 41.17700195 C81.16235352 43.17700195 81.16235352 43.17700195 77.70141602 43.1887207 C74.16235352 42.17700195 74.16235352 42.17700195 72.12329102 39.4465332 C71.59993164 38.30571289 71.07657227 37.16489258 70.53735352 35.98950195 C65.55675834 25.92957735 59.72863023 19.64355303 49.04174805 15.31884766 C40.5100586 12.5201408 31.8377462 12.68767114 22.95678711 12.73095703 C20.29925897 12.73946384 17.64388918 12.71063073 14.98657227 12.67895508 C0.18667853 12.61649041 -12.67016662 14.4555077 -23.83764648 25.17700195 C-27.3792988 29.75001456 -30.12783085 34.46161418 -32.33764648 39.80200195 C-33.83764648 42.17700195 -33.83764648 42.17700195 -37.27514648 43.30200195 C-40.83764648 43.17700195 -40.83764648 43.17700195 -43.33764648 41.67700195 C-45.00115092 38.90449456 -45.19056681 37.36447844 -44.49389648 34.21606445 C-40.74731483 22.57490001 -32.60714888 12.79221162 -22.20483398 6.38793945 C-15.29092884 2.85112329 -7.80843757 0.09149288 0 0 Z " fill="#000000" transform="translate(107.837646484375,152.822998046875)"/>
</svg>
