<?xml version="1.0" encoding="UTF-8"?>
<svg version="1.1" xmlns="http://www.w3.org/2000/svg" width="256" height="256">
<path d="M0 0 C0.87740217 0.00018436 1.75480435 0.00036873 2.65879446 0.00055867 C4.04606752 -0.00495636 4.04606752 -0.00495636 5.4613663 -0.0105828 C8.58578 -0.02166758 11.7101605 -0.02547164 14.83459097 -0.02927226 C17.06479124 -0.03553351 19.29499045 -0.04218001 21.52518851 -0.04918498 C27.60411562 -0.06663134 33.68303485 -0.07715756 39.76198083 -0.08539051 C43.55900831 -0.09053509 47.35603332 -0.09661119 51.15305907 -0.10290164 C61.66757093 -0.11978053 72.18208165 -0.13441309 82.69660479 -0.14165038 C85.42717051 -0.14356029 88.15773622 -0.14548061 90.88830191 -0.14743632 C91.56697347 -0.14792006 92.24564503 -0.1484038 92.9448824 -0.1489022 C103.92474395 -0.15719214 114.90449618 -0.18250798 125.88431006 -0.215017 C137.1596532 -0.24812822 148.43494297 -0.26577059 159.7103411 -0.26929462 C166.03985482 -0.27164512 172.36919609 -0.28060512 178.69866377 -0.30575579 C184.65844551 -0.32905283 190.61794146 -0.33326295 196.57775694 -0.32299441 C198.76180732 -0.32249927 200.94587183 -0.3288132 203.12987906 -0.34255046 C206.11975676 -0.36029927 209.10861233 -0.35314799 212.09849173 -0.3400175 C213.38448024 -0.35647137 213.38448024 -0.35647137 214.69644833 -0.37325764 C224.95663287 -0.26503308 232.44327653 3.79027379 239.75085074 10.77663594 C247.80894997 19.46449781 249.53453243 28.36231262 249.26256949 39.94069844 C248.71217115 50.25837389 243.06008274 58.41446342 235.76256949 65.39772969 C224.81506278 73.84073187 211.99112655 72.70068975 198.87926871 72.6177004 C196.64284291 72.61820971 194.40641693 72.62046873 192.16999441 72.62433797 C186.12312959 72.62973868 180.07657329 72.61039958 174.02976376 72.58623701 C167.70015915 72.56489904 161.37055517 72.56553433 155.04092032 72.56354696 C144.42398844 72.557109 133.80718243 72.53601987 123.19030386 72.50441915 C112.26223903 72.4719188 101.33423525 72.45072251 90.40612417 72.44289571 C89.73153154 72.44241022 89.05693891 72.44192473 88.36190407 72.44142453 C85.65041727 72.43949586 82.93893046 72.43758372 80.22744363 72.43570842 C69.17977916 72.42773249 58.13212646 72.41046452 47.0844751 72.39207226 C43.30933611 72.3859982 39.53419651 72.38085953 35.75905615 72.3757208 C29.84437637 72.36696594 23.92973418 72.35268457 18.01507765 72.3340109 C15.83854019 72.32786865 13.66199721 72.32342952 11.48545271 72.32076818 C8.52829937 72.31681131 5.57123229 72.30671783 2.61410147 72.29490072 C1.74127236 72.29508508 0.86844326 72.29526944 -0.03083521 72.29545939 C-5.93569319 72.26196702 -5.93569319 72.26196702 -7.04993051 71.14772969 C-7.29993051 68.71022969 -7.29993051 68.71022969 -7.04993051 66.14772969 C-4.04993051 64.14772969 -4.04993051 64.14772969 4.95006949 64.14772969 C4.95006949 45.33772969 4.95006949 26.52772969 4.95006949 7.14772969 C1.32006949 7.14772969 -2.30993051 7.14772969 -6.04993051 7.14772969 C-7.04993051 6.14772969 -7.04993051 6.14772969 -7.17493051 3.64772969 C-6.93414932 -1.16789407 -4.17007299 0.02352992 0 0 Z M12.95006949 7.14772969 C12.95006949 11.76772969 12.95006949 16.38772969 12.95006949 21.14772969 C91.65506949 21.64272969 91.65506949 21.64272969 171.95006949 22.14772969 C171.95006949 23.79772969 171.95006949 25.44772969 171.95006949 27.14772969 C170.12974065 28.96805853 167.27903914 28.29238307 164.83152395 28.30594808 C164.18546826 28.31088606 163.53941256 28.31582403 162.87377942 28.32091165 C160.69340162 28.33635755 158.51305341 28.34466631 156.33263785 28.35305196 C154.77585721 28.36262493 153.21907921 28.37263465 151.66230398 28.38305074 C147.42284576 28.41016895 143.18337632 28.43114093 138.94387895 28.45105273 C134.5182329 28.47286977 130.09262168 28.50027934 125.66700369 28.52710897 C117.28055496 28.57709393 108.89408696 28.62201115 100.50760043 28.66513133 C90.96239127 28.71445422 81.41721704 28.76939064 71.87204164 28.82481092 C52.23141659 28.93872003 32.59075768 29.0453404 12.95006949 29.14772969 C12.95006949 33.76772969 12.95006949 38.38772969 12.95006949 43.14772969 C14.92728491 43.15803716 16.90450033 43.16834462 18.94163138 43.17896444 C37.52784666 43.27632806 56.1140259 43.37915578 74.70018297 43.48706895 C84.25669176 43.54242254 93.81320428 43.59590798 103.36974722 43.64504415 C111.69611301 43.68785989 120.02245107 43.73413119 128.34877408 43.78460824 C132.76030178 43.81123028 137.17182392 43.83608379 141.58338362 43.85680372 C145.73080031 43.87633751 149.87816412 43.90047131 154.02553374 43.92822057 C155.55219573 43.93760833 157.07886935 43.94527736 158.60554892 43.95114881 C160.68093253 43.95938085 162.75618677 43.97364895 164.83152395 43.98951131 C166.57786076 43.99919014 166.57786076 43.99919014 168.3594771 44.0090645 C170.95006949 44.14772969 170.95006949 44.14772969 171.95006949 45.14772969 C171.95006949 46.79772969 171.95006949 48.44772969 171.95006949 50.14772969 C119.48006949 50.47772969 67.01006949 50.80772969 12.95006949 51.14772969 C12.95006949 55.43772969 12.95006949 59.72772969 12.95006949 64.14772969 C39.76675572 64.26459488 66.58340371 64.35273366 93.40029341 64.40679055 C105.85219345 64.43255863 118.30393515 64.46768275 130.75573355 64.52492696 C141.61027773 64.57480434 152.46470722 64.60703086 163.31936282 64.61817217 C169.06545729 64.6246835 174.81122369 64.63995843 180.55721289 64.67637998 C185.96956165 64.71040761 191.3814483 64.72076883 196.79389387 64.7132681 C198.77638964 64.71463961 200.75890144 64.72453146 202.74130446 64.74375707 C215.15484424 64.85820384 224.11050636 64.4117513 233.82506949 55.89772969 C238.87313535 50.42105447 241.68889361 43.59124206 241.95006949 36.14772969 C241.27877654 27.72086076 238.15605139 20.13147772 231.95397574 14.25710469 C224.02435565 8.08129472 216.46561995 6.98992909 206.55984122 7.02747518 C205.72983709 7.02662075 204.89983296 7.02576633 204.0446772 7.02488601 C201.27174543 7.02324279 198.49887456 7.0287336 195.72594839 7.0342043 C193.73494092 7.03448645 191.74393334 7.0343279 189.75292593 7.0337618 C184.35261789 7.0334749 178.95233207 7.03935431 173.55202919 7.04633576 C167.9065834 7.05258714 162.2611371 7.05317451 156.61568838 7.05436116 C145.92734436 7.05746921 135.23901056 7.06567551 124.55067104 7.07571065 C112.38147823 7.08688813 100.21228493 7.09238637 88.04308826 7.09740609 C63.01207633 7.10785855 37.98107348 7.12544781 12.95006949 7.14772969 Z " fill="#000000" transform="translate(7.049930512905121,165.8522703051567)"/>
<path d="M0 0 C0.76845562 0.00086648 1.53691124 0.00173296 2.3286534 0.0026257 C3.13916263 -0.00034542 3.94967187 -0.00331654 4.784742 -0.0063777 C7.52221346 -0.01510396 10.25964139 -0.01657628 12.99712569 -0.01806521 C14.95146726 -0.02269086 16.90580793 -0.02771517 18.86014754 -0.03311038 C24.18703581 -0.04626654 29.51391146 -0.05268634 34.84081346 -0.05712104 C38.16881407 -0.06004843 41.49681121 -0.06415274 44.82481009 -0.06862521 C55.23657867 -0.08231265 65.64833934 -0.09197148 76.06011629 -0.0958271 C88.07877365 -0.10030193 100.09731694 -0.11781789 112.11593962 -0.1468277 C121.40266579 -0.16846442 130.68935994 -0.17853256 139.97611105 -0.17986822 C145.52311751 -0.18091542 151.07001692 -0.18680449 156.61699682 -0.20468783 C161.84133615 -0.22120137 167.0654884 -0.22330802 172.28984457 -0.21454883 C174.20298076 -0.21378004 176.11612712 -0.21810025 178.02923781 -0.22800708 C191.58979363 -0.29408316 202.64542603 -0.11027764 213.2454167 9.4555676 C221.05555915 18.0667503 223.29551343 25.5695508 222.9876042 37.16259885 C222.24582764 46.85324389 217.88146349 53.72889674 210.6829167 60.1430676 C203.6015882 65.01511463 197.98859912 66.29509598 189.45726973 66.26332211 C188.62080735 66.26417654 187.78434497 66.26503096 186.92253524 66.26591128 C184.11575268 66.26756025 181.3090297 66.26205422 178.50225264 66.25659299 C176.49183599 66.25631097 174.48141923 66.25646915 172.47100264 66.25703549 C167.0085948 66.25732288 161.54620884 66.25143565 156.0838061 66.24446154 C150.37695558 66.23821821 144.67010458 66.23762342 138.96325117 66.23643613 C128.15442632 66.23332571 117.34561155 66.2251162 106.53679115 66.21508664 C94.232218 66.20391654 81.92764439 66.19841279 69.62306744 66.1933912 C44.30967826 66.18293337 18.99629805 66.1653395 -6.3170833 66.1430676 C-6.9420833 63.2680676 -6.9420833 63.2680676 -7.3170833 60.1430676 C-6.6570833 59.4830676 -5.9970833 58.8230676 -5.3170833 58.1430676 C-2.3470833 58.1430676 0.6229167 58.1430676 3.6829167 58.1430676 C3.6829167 41.6430676 3.6829167 25.1430676 3.6829167 8.1430676 C0.7129167 8.1430676 -2.2570833 8.1430676 -5.3170833 8.1430676 C-5.9770833 7.4830676 -6.6370833 6.8230676 -7.3170833 6.1430676 C-6.60633267 0.31491242 -5.74733344 0.03187905 0 0 Z M11.6829167 8.1430676 C11.6829167 11.7730676 11.6829167 15.4030676 11.6829167 19.1430676 C13.44715483 19.15337506 15.21139296 19.16368253 17.02909285 19.17430234 C33.613915 19.27184188 50.19869793 19.3744974 66.78345591 19.48240685 C75.31088247 19.53775853 83.83831321 19.59124365 92.36577803 19.64038205 C99.79560552 19.68320014 107.22540196 19.72947203 114.65518153 19.77994615 C118.59163166 19.8065663 122.52807555 19.83141976 126.46456152 19.85214162 C130.16548015 19.8716779 133.86633958 19.89581244 137.56720549 19.92355847 C139.58160099 19.93743917 141.59602868 19.9463685 143.61045271 19.95518613 C145.39210829 19.96986936 145.39210829 19.96986936 147.20975691 19.98484921 C148.76804795 19.99452804 148.76804795 19.99452804 150.35781962 20.0044024 C152.6829167 20.1430676 152.6829167 20.1430676 153.6829167 21.1430676 C153.6829167 22.7930676 153.6829167 24.4430676 153.6829167 26.1430676 C83.3929167 26.6380676 83.3929167 26.6380676 11.6829167 27.1430676 C11.6829167 31.1030676 11.6829167 35.0630676 11.6829167 39.1430676 C82.4679167 39.6380676 82.4679167 39.6380676 154.6829167 40.1430676 C154.3529167 42.1230676 154.0229167 44.1030676 153.6829167 46.1430676 C83.3929167 46.6380676 83.3929167 46.6380676 11.6829167 47.1430676 C11.6829167 50.7730676 11.6829167 54.4030676 11.6829167 58.1430676 C35.50076834 58.259966 59.31857686 58.34808777 83.13665777 58.40212846 C94.19628315 58.42788953 105.25573009 58.46300011 116.31524092 58.52026486 C125.95681785 58.57016386 135.59826553 58.60237385 145.239968 58.61351007 C150.34333026 58.62001779 155.44632278 58.63526925 160.54956633 58.67171788 C165.35783936 58.70577993 170.16559206 58.71609996 174.97397429 58.708606 C176.73394038 58.709976 178.49392477 58.71984751 180.25378615 58.73909497 C190.99618355 58.85077199 199.57683035 58.30975605 208.1204167 51.0805676 C208.6360417 50.4411926 209.1516667 49.8018176 209.6829167 49.1430676 C210.2191667 48.5036926 210.7554167 47.8643176 211.3079167 47.2055676 C215.48910383 40.93378691 215.49985177 34.46144422 214.6829167 27.1430676 C212.55356401 20.1846472 208.78084649 15.06421185 202.6829167 11.1430676 C194.03382105 7.23422445 185.24603868 7.74096792 175.95415694 7.80249143 C174.15974892 7.8033386 172.36533986 7.8028608 170.57093245 7.80116391 C165.72028837 7.80030605 160.86986857 7.8178979 156.01927644 7.83888578 C150.94241093 7.85768751 145.86553981 7.85940578 140.78864485 7.86296201 C131.18408487 7.87227221 121.57962778 7.89687212 111.97511303 7.92701048 C101.03679563 7.9605864 90.09847322 7.97704852 79.16011709 7.99209678 C56.66766 8.02342259 34.17529412 8.07616314 11.6829167 8.1430676 Z " fill="#000000" transform="translate(33.317083299160004,88.8569324016571)"/>
<path d="M0 0 C0.71077352 0.00018436 1.42154703 0.00036873 2.15385914 0.00055867 C2.90382066 -0.00311801 3.65378218 -0.0067947 4.4264698 -0.0105828 C6.95897874 -0.02166374 9.49144672 -0.02547099 12.02397633 -0.02927226 C13.83215943 -0.03553384 15.64034124 -0.04218036 17.44852161 -0.04918498 C22.37659099 -0.06662905 27.30465063 -0.07715707 32.23274326 -0.08539051 C35.31148161 -0.0905359 38.39021692 -0.09661199 41.46895313 -0.10290164 C51.10063683 -0.12196748 60.73231281 -0.13619283 70.36401176 -0.14451361 C81.48280142 -0.15427711 92.60139153 -0.18056762 103.72011089 -0.2210145 C112.31128514 -0.25119366 120.90240228 -0.26598439 129.4936285 -0.26929462 C134.62537569 -0.27164404 139.75691003 -0.28058973 144.88860035 -0.30575579 C149.7214733 -0.32907139 154.55399387 -0.33325567 159.38690853 -0.32299441 C161.15695398 -0.32249971 162.92701697 -0.32880083 164.69700909 -0.34255046 C177.04821447 -0.4330942 185.9884636 0.59565265 195.34428883 9.28054219 C201.95089655 16.42524466 202.53592384 24.00332856 202.34428883 33.38210469 C201.70742872 42.15257815 197.28282165 48.16633469 191.07085133 54.14772969 C184.71164869 59.18209845 178.26201374 60.45432302 170.28841114 60.39496785 C169.53584565 60.39738227 168.78328016 60.39979668 168.00790966 60.40228426 C165.50292122 60.40789031 162.99819132 60.39928193 160.49321461 60.39064962 C158.69087117 60.39172322 156.88852808 60.39366306 155.08618641 60.39640218 C150.20442379 60.40123912 145.32275294 60.39361071 140.44100142 60.38344914 C135.33388501 60.37465657 130.22677137 60.37642627 125.11964893 60.3768099 C116.55030756 60.37587424 107.98100167 60.36720087 99.41167164 60.35354024 C89.49190224 60.33778571 79.5721716 60.33254322 69.6523906 60.33327579 C60.11574363 60.33388504 50.57910933 60.32879102 41.04246616 60.32048398 C36.97946925 60.31694568 32.91647681 60.31511997 28.85347843 60.31459028 C24.07809424 60.3135894 19.30274287 60.30751389 14.5273695 60.29742414 C12.77009819 60.29449181 11.0128231 60.29327524 9.25554943 60.29385167 C6.86746072 60.29433881 4.47946541 60.28872217 2.09138966 60.28144246 C1.3870338 60.28299107 0.68267794 60.28453967 -0.04302204 60.2861352 C-4.81496932 60.26190905 -4.81496932 60.26190905 -5.92914867 59.14772969 C-6.05414867 56.14772969 -6.05414867 56.14772969 -5.92914867 53.14772969 C-5.43414867 52.65272969 -5.43414867 52.65272969 -4.92914867 52.14772969 C-2.28914867 52.14772969 0.35085133 52.14772969 3.07085133 52.14772969 C3.07085133 37.62772969 3.07085133 23.10772969 3.07085133 8.14772969 C1.09085133 8.14772969 -0.88914867 8.14772969 -2.92914867 8.14772969 C-3.91914867 7.48772969 -4.90914867 6.82772969 -5.92914867 6.14772969 C-6.17914867 3.58522969 -6.17914867 3.58522969 -5.92914867 1.14772969 C-4.26090193 -0.52051705 -2.22888008 0.01550395 0 0 Z M11.07085133 8.14772969 C11.07085133 11.11772969 11.07085133 14.08772969 11.07085133 17.14772969 C53.64085133 17.14772969 96.21085133 17.14772969 140.07085133 17.14772969 C140.07085133 19.12772969 140.07085133 21.10772969 140.07085133 23.14772969 C138.40222163 24.81635939 136.38492466 24.29025314 134.09122181 24.30594808 C133.01283543 24.3157369 131.93444904 24.32552572 130.82338428 24.33561116 C129.63008503 24.34136663 128.43678577 24.34712209 127.20732594 24.35305196 C125.95872288 24.36295156 124.71011982 24.37285115 123.42368031 24.38305074 C119.98996975 24.40930215 116.55628325 24.43113779 113.12253356 24.45105273 C109.53769913 24.47287394 105.95290763 24.50028147 102.3681078 24.52710897 C95.57538203 24.57708828 88.78263249 24.6220076 81.98986012 24.66513133 C74.25839589 24.71445904 66.52697474 24.76939368 58.79555213 24.82481092 C42.88735805 24.93871136 26.97912385 25.04533385 11.07085133 25.14772969 C11.07085133 28.44772969 11.07085133 31.74772969 11.07085133 35.14772969 C53.64085133 35.14772969 96.21085133 35.14772969 140.07085133 35.14772969 C140.07085133 37.12772969 140.07085133 39.10772969 140.07085133 41.14772969 C138.40222163 42.81635939 136.38492466 42.29025314 134.09122181 42.30594808 C133.01283543 42.3157369 131.93444904 42.32552572 130.82338428 42.33561116 C129.63008503 42.34136663 128.43678577 42.34712209 127.20732594 42.35305196 C125.95872288 42.36295156 124.71011982 42.37285115 123.42368031 42.38305074 C119.98996975 42.40930215 116.55628325 42.43113779 113.12253356 42.45105273 C109.53769913 42.47287394 105.95290763 42.50028147 102.3681078 42.52710897 C95.57538203 42.57708828 88.78263249 42.6220076 81.98986012 42.66513133 C74.25839589 42.71445904 66.52697474 42.76939368 58.79555213 42.82481092 C42.8873583 42.93871135 26.97912491 43.04553274 11.07085133 43.14772969 C11.07085133 46.11772969 11.07085133 49.08772969 11.07085133 52.14772969 C32.54178932 52.26466058 54.01267461 52.35276568 75.48386669 52.40679055 C85.45388798 52.4325448 95.42371114 52.46764212 105.39360523 52.52492696 C114.08590348 52.5748471 122.7780582 52.60704091 131.47049582 52.61817217 C136.07085388 52.62467637 140.6708014 52.63990483 145.27102757 52.67637998 C149.60654863 52.71047574 153.94149249 52.72075546 158.2771349 52.7132681 C159.86294797 52.71463661 161.44878159 52.72448821 163.03447819 52.74375707 C171.86628427 52.84575752 179.73919791 52.67190977 187.07085133 47.14772969 C192.9404693 40.82944046 194.44781405 35.8041896 194.34428883 27.22194844 C193.78781337 20.96557434 191.2233203 16.94178448 186.63335133 12.77272969 C181.79228903 8.75161531 177.35496879 7.89786626 171.12961292 7.90722066 C170.10027487 7.90465739 170.10027487 7.90465739 169.05014211 7.90204233 C166.7577029 7.89875603 164.46555836 7.90973674 162.17314625 7.92067891 C160.52710953 7.92124321 158.88107232 7.9209261 157.2350359 7.9197939 C152.77055418 7.91922013 148.30617995 7.93097853 143.8417232 7.94494182 C139.17455926 7.95744496 134.50739284 7.95861935 129.84021473 7.96099263 C121.00407364 7.96720862 112.16798204 7.98362106 103.33186275 8.00369161 C93.27148566 8.0260469 83.21110621 8.03704312 73.15071046 8.04708248 C52.45739646 8.06798717 31.76412701 8.10316548 11.07085133 8.14772969 Z " fill="#000000" transform="translate(53.92914867401123,17.852270305156708)"/>
</svg>
