<?xml version="1.0" encoding="UTF-8"?>
<svg version="1.1" xmlns="http://www.w3.org/2000/svg" width="256" height="256">
<path d="M0 0 C0.93547092 -0.00241442 1.87094184 -0.00482883 2.83476037 -0.00731641 C5.96471525 -0.01294561 9.09446534 -0.00429621 12.22441101 0.00431824 C14.46995092 0.0032452 16.71549056 0.00130619 18.96102905 -0.00143433 C25.05561521 -0.00628091 31.15012814 0.00136972 37.24470544 0.01151872 C43.61572198 0.02029765 49.98673621 0.01854183 56.35775757 0.01815796 C67.05160397 0.01909437 77.7454193 0.02772314 88.43925476 0.04142761 C99.45000218 0.05553095 110.46072475 0.06259765 121.47148132 0.06193542 C122.15037457 0.06189547 122.82926782 0.06185551 123.52873359 0.06181435 C124.5452931 0.06175381 124.5452931 0.06175381 125.58238918 0.06169206 C137.47849542 0.06103795 149.37459295 0.06617743 161.27069664 0.07448387 C166.3412757 0.07802327 171.41185117 0.07984805 176.48243141 0.08037758 C182.44382053 0.08137837 188.40518335 0.08745323 194.3665638 0.09754372 C196.5608377 0.10047665 198.75511463 0.10169249 200.94939041 0.10111618 C203.93088831 0.10062922 206.91231131 0.10624401 209.89379883 0.11352539 C211.21399481 0.11120249 211.21399481 0.11120249 212.56086141 0.10883266 C218.51526133 0.13305918 218.51526133 0.13305918 219.62944031 1.24723816 C219.75444031 3.74723816 219.75444031 3.74723816 219.62944031 6.24723816 C219.29944031 6.57723816 218.96944031 6.90723816 218.62944031 7.24723816 C214.99944031 7.24723816 211.36944031 7.24723816 207.62944031 7.24723816 C207.62944031 26.05723816 207.62944031 44.86723816 207.62944031 64.24723816 C210.59944031 64.24723816 213.56944031 64.24723816 216.62944031 64.24723816 C217.61944031 64.90723816 218.60944031 65.56723816 219.62944031 66.24723816 C219.87944031 68.80973816 219.87944031 68.80973816 219.62944031 71.24723816 C217.76540302 73.11127544 215.09195203 72.38089217 212.61034501 72.39496785 C211.7375159 72.39478349 210.8646868 72.39459913 209.96540833 72.39440918 C209.04534874 72.39808587 208.12528915 72.40176256 207.17734897 72.40555066 C204.06908875 72.41663544 200.96086191 72.4204395 197.85258484 72.42424011 C195.63385918 72.43050141 193.41513457 72.43714791 191.19641113 72.44415283 C185.14840764 72.46159982 179.10041208 72.47212578 173.05238962 72.48035836 C169.27411542 72.48550326 165.49584371 72.49157938 161.71757126 72.49786949 C151.25367377 72.51474917 140.78977743 72.52938125 130.32586861 72.53661823 C127.60837426 72.53852813 124.89087993 72.54044845 122.17338562 72.54240417 C121.49796698 72.54288792 120.82254835 72.54337166 120.12666248 72.54387005 C109.20244167 72.55215779 98.27833081 72.57746948 87.35415794 72.60998485 C76.13418059 72.64310753 64.91425688 72.66073961 53.69422424 72.66426247 C47.39653629 72.66661197 41.09902177 72.67555878 34.80138016 72.70072365 C28.87032208 72.7240385 22.93955115 72.72822365 17.00845909 72.71796227 C14.8361166 72.71746754 12.66375983 72.7237691 10.4914608 72.73751831 C-4.39358848 72.8264259 -15.95375653 72.54452597 -27.20649719 61.68473816 C-35.64507856 52.17991004 -37.21647057 41.5436934 -36.5526886 29.248703 C-35.70559176 19.93972197 -30.00851881 13.40402726 -23.37055969 7.24723816 C-16.04832954 1.57284202 -9.12448493 -0.05400875 0 0 Z M-20.37055969 15.24723816 C-26.14591275 22.25664102 -30.03472312 30.21202551 -29.15962219 39.48161316 C-27.57047477 48.17694809 -23.15619567 53.9548684 -16.62837219 59.70426941 C-10.6848008 63.76605263 -5.69796082 64.68622962 1.32974243 64.60800171 C2.18101874 64.61056498 3.03229506 64.61312826 3.90936762 64.61576921 C6.74846437 64.62069216 9.58702379 64.60423883 12.42607117 64.58781433 C14.46648649 64.58696774 16.50690272 64.58744383 18.5473175 64.58914185 C24.07779865 64.59000196 29.60808426 64.57237343 35.13852 64.55141997 C40.92141778 64.53265596 46.70432013 64.53090294 52.48724365 64.52734375 C63.43412921 64.5180225 74.38092481 64.49340755 85.32777077 64.46329528 C97.79201219 64.42975384 110.25625793 64.41326589 122.72053325 64.39820898 C148.35688547 64.36685813 173.99315784 64.31409599 199.62944031 64.24723816 C199.62944031 59.95723816 199.62944031 55.66723816 199.62944031 51.24723816 C147.15944031 50.91723816 94.68944031 50.58723816 40.62944031 50.24723816 C40.62944031 45.24723816 40.62944031 45.24723816 41.62944031 44.24723816 C43.66672086 44.13818977 45.70782022 44.10032711 47.74798584 44.08901978 C48.39404154 44.0840818 49.04009724 44.07914382 49.70573038 44.07405621 C51.88610818 44.0586103 54.06645638 44.05030154 56.24687195 44.04191589 C57.80365258 44.03234293 59.36043059 44.0223332 60.91720581 44.01191711 C65.15666403 43.9847989 69.39613347 43.96382692 73.63563085 43.94391513 C78.06127689 43.92209808 82.48688812 43.89468852 86.9125061 43.86785889 C95.29895484 43.81787392 103.68542284 43.7729567 112.07190937 43.72983652 C121.61711853 43.68051364 131.16229275 43.62557722 140.70746815 43.57015693 C160.34809321 43.45624782 179.98875211 43.34962746 199.62944031 43.24723816 C199.62944031 38.62723816 199.62944031 34.00723816 199.62944031 29.24723816 C197.65222488 29.23693069 195.67500946 29.22662323 193.63787842 29.21600342 C175.05166314 29.11863979 156.46548389 29.01581207 137.87932682 28.9078989 C128.32281803 28.85254532 118.76630552 28.79905988 109.20976257 28.74992371 C100.88339678 28.70710796 92.55705872 28.66083667 84.23073572 28.61035961 C79.81920801 28.58373757 75.40768588 28.55888406 70.99612617 28.53816414 C66.84870948 28.51863034 62.70134567 28.49449654 58.55397606 28.46674728 C57.02731406 28.45735952 55.50064044 28.4496905 53.97396088 28.44381905 C51.89857727 28.43558701 49.82332302 28.4213189 47.74798584 28.40545654 C46.00164903 28.39577772 46.00164903 28.39577772 44.22003269 28.38590336 C41.62944031 28.24723816 41.62944031 28.24723816 40.62944031 27.24723816 C40.62944031 25.59723816 40.62944031 23.94723816 40.62944031 22.24723816 C119.33444031 21.75223816 119.33444031 21.75223816 199.62944031 21.24723816 C199.62944031 16.62723816 199.62944031 12.00723816 199.62944031 7.24723816 C173.44735635 7.20050027 147.26527864 7.16524052 121.08316135 7.14361382 C108.92612882 7.1333049 96.76912221 7.11925186 84.61210632 7.09635925 C74.01503527 7.07641367 63.41798301 7.06351893 52.8208937 7.05906117 C47.21076789 7.05645578 41.60069581 7.05033988 35.99058723 7.03577805 C30.7072052 7.02217574 25.4238989 7.0180209 20.14050102 7.0210228 C18.20437076 7.02047382 16.26823789 7.01651221 14.3321228 7.00882721 C11.68146722 6.99882449 9.03109475 7.00128862 6.38043213 7.00672913 C5.62067615 7.00090344 4.86092016 6.99507776 4.07814127 6.98907554 C-5.29608159 7.04080899 -13.23895439 8.91994924 -20.37055969 15.24723816 Z " fill="#000000" transform="translate(36.37055969238281,165.7527618408203)"/>
<path d="M0 0 C1.96865023 -0.00243072 3.93729922 -0.00615276 5.90594482 -0.01106262 C11.22769781 -0.02043185 16.54926563 -0.01108227 21.8710041 0.00226951 C27.44342184 0.01361391 33.01583087 0.00947451 38.58825684 0.00752258 C47.9358217 0.00664114 57.28331382 0.01769356 66.63085938 0.03613281 C77.44762306 0.05734766 88.2642806 0.06079893 99.08106089 0.05457085 C109.48750113 0.04888541 119.8939039 0.05450997 130.30033875 0.0657444 C134.73093863 0.07039621 139.16151564 0.0712618 143.59211731 0.06915855 C148.79930244 0.06728094 154.0063788 0.07533868 159.21353912 0.09121895 C161.12842102 0.09547564 163.04331393 0.09630312 164.95819855 0.09352875 C167.56262607 0.09032655 170.1667245 0.09933843 172.77111816 0.11161804 C173.53666094 0.10783872 174.30220372 0.10405939 175.09094477 0.10016555 C180.30877857 0.14398364 180.30877857 0.14398364 182.53710938 2.37231445 C181.98155382 6.92787001 181.98155382 6.92787001 180.53710938 8.37231445 C177.56710938 8.37231445 174.59710938 8.37231445 171.53710938 8.37231445 C171.53710938 24.87231445 171.53710938 41.37231445 171.53710938 58.37231445 C174.50710937 58.37231445 177.47710937 58.37231445 180.53710938 58.37231445 C181.19710937 59.03231445 181.85710937 59.69231445 182.53710938 60.37231445 C182.16210938 63.49731445 182.16210938 63.49731445 181.53710938 66.37231445 C155.11155527 66.4658098 128.686026 66.53631924 102.26033974 66.57956314 C89.99007255 66.60017689 77.7199082 66.62827494 65.44970703 66.67407227 C54.75337637 66.7139762 44.05712021 66.7397559 33.36071718 66.74866843 C27.69851036 66.75387711 22.03651664 66.76609497 16.3743782 66.79523468 C11.0408666 66.82245979 5.70765515 66.83074504 0.37408066 66.82474518 C-1.57938012 66.82584224 -3.53285132 66.83375362 -5.48625183 66.84913635 C-19.01845413 66.95043982 -29.19736817 66.33391537 -39.48242188 56.5949707 C-47.30936286 47.810889 -48.17454087 38.57937129 -47.64648438 27.27368164 C-47.24478723 23.11355214 -45.66230191 19.85953893 -43.46289062 16.37231445 C-43.11226562 15.75098633 -42.76164062 15.1296582 -42.40039062 14.48950195 C-37.90101082 7.27174684 -30.77942622 3.34866097 -22.78613281 1.01725197 C-15.30190337 -0.43520321 -7.59500384 -0.03287645 0 0 Z M-32.88867188 15.52856445 C-38.54014414 22.14765852 -40.26826921 28.69135153 -39.87304688 37.32543945 C-38.86583005 44.80762157 -35.34857641 48.97463669 -29.75585938 53.8293457 C-24.16082756 57.594316 -19.32171524 58.81707751 -12.63575745 58.733078 C-11.49972553 58.73692291 -11.49972553 58.73692291 -10.34074348 58.7408455 C-7.81947052 58.74576135 -5.29880508 58.72932737 -2.77758789 58.71289062 C-0.96377069 58.71204387 0.85004753 58.71252043 2.66386414 58.71421814 C7.57660661 58.71507764 12.48912863 58.69745903 17.40181994 58.67649627 C22.54009043 58.65772209 27.67836616 58.65597844 32.81666565 58.65242004 C42.54170581 58.64310177 52.2666446 58.61849088 61.99164015 58.58837157 C73.06533808 58.55482084 84.1390409 58.53833985 95.21277702 58.52328527 C117.98761063 58.49194118 140.76235432 58.43918485 163.53710938 58.37231445 C163.53710938 54.74231445 163.53710938 51.11231445 163.53710938 47.37231445 C116.67710937 47.04231445 69.81710938 46.71231445 21.53710938 46.37231445 C21.04210937 43.40231445 21.04210937 43.40231445 20.53710938 40.37231445 C67.72710937 40.04231445 114.91710937 39.71231445 163.53710938 39.37231445 C163.53710938 35.41231445 163.53710938 31.45231445 163.53710938 27.37231445 C116.67710937 27.04231445 69.81710938 26.71231445 21.53710938 26.37231445 C21.53710938 21.37231445 21.53710938 21.37231445 22.53710938 20.37231445 C24.35902095 20.26365846 26.18515563 20.22543218 28.01026917 20.21409607 C29.19803955 20.20430725 30.38580994 20.19451843 31.60957336 20.18443298 C32.92443222 20.17867752 34.23929108 20.17292206 35.59399414 20.16699219 C36.98328954 20.1574189 38.372582 20.14740915 39.76187134 20.13699341 C43.54473054 20.10987868 47.3276023 20.08890481 51.11050534 20.06899142 C55.05969122 20.04717223 59.0088381 20.01976371 62.95799255 19.99293518 C70.44133184 19.94295312 77.9246927 19.89803482 85.40807432 19.85491282 C93.9254944 19.80558745 102.44287537 19.75065195 110.96025765 19.69523323 C128.48583899 19.58132858 146.01145713 19.47470712 163.53710938 19.37231445 C163.53710938 15.74231445 163.53710938 12.11231445 163.53710938 8.37231445 C139.96271514 8.30219149 116.38833656 8.24931013 92.81385899 8.21687794 C81.86748833 8.20141795 70.92118254 8.18034497 59.97485352 8.14599609 C50.43253645 8.11606722 40.89026637 8.09673314 31.34790367 8.09004897 C26.29665589 8.08614264 21.2455425 8.07698019 16.19433784 8.05512428 C11.43622244 8.03470408 6.67829629 8.02849184 1.92014122 8.03299141 C0.17751155 8.03216868 -1.5651247 8.0262361 -3.30771637 8.01469803 C-19.31252992 7.76606076 -19.31252992 7.76606076 -32.88867188 15.52856445 Z " fill="#000000" transform="translate(47.462890625,88.627685546875)"/>
<path d="M0 0 C0.7573149 -0.00155999 1.51462979 -0.00311998 2.29489362 -0.00472724 C4.83987506 -0.00872515 7.38479714 -0.00555228 9.92977905 -0.00241089 C11.75123632 -0.00376544 13.57269331 -0.00554568 15.39414978 -0.00772095 C20.34636749 -0.0122882 25.29856441 -0.01050878 30.25078249 -0.00734186 C35.42465554 -0.00481539 40.59852678 -0.00715653 45.7723999 -0.00872803 C54.45979127 -0.01054855 63.14717413 -0.00814613 71.83456421 -0.00338745 C81.89284909 0.00205836 91.95111371 0.00028972 102.0093981 -0.00521386 C110.63275916 -0.00974423 119.25611409 -0.01039601 127.87947595 -0.00777519 C133.03544406 -0.00621244 138.19140264 -0.00601867 143.34737015 -0.00931168 C148.19164166 -0.01218941 153.03588691 -0.01021652 157.88015556 -0.00441742 C159.663226 -0.00308944 161.44629863 -0.00348458 163.22936821 -0.00568008 C165.65269836 -0.00839002 168.07594296 -0.00501245 170.49926758 0 C171.21413381 -0.00223072 171.92900005 -0.00446144 172.66552889 -0.00675976 C177.50850005 0.01283355 177.50850005 0.01283355 178.62265015 1.12698364 C178.87265015 3.56448364 178.87265015 3.56448364 178.62265015 6.12698364 C175.62265015 8.12698364 175.62265015 8.12698364 169.62265015 8.12698364 C169.62265015 22.64698364 169.62265015 37.16698364 169.62265015 52.12698364 C172.26265015 52.12698364 174.90265015 52.12698364 177.62265015 52.12698364 C178.62265015 53.12698364 178.62265015 53.12698364 178.74765015 56.12698364 C178.62265015 59.12698364 178.62265015 59.12698364 177.62265015 60.12698364 C175.27748032 60.23125706 172.96150942 60.27031706 170.61557007 60.26742554 C169.87377565 60.27039666 169.13198124 60.27336778 168.36770821 60.27642894 C165.86283392 60.28515378 163.35800721 60.2866274 160.8531189 60.28811646 C159.06464027 60.29274219 157.27616263 60.29776651 155.48768616 60.30316162 C150.61332997 60.31631666 145.73898757 60.32273733 140.86461639 60.32717228 C137.81937981 60.33009977 134.77414703 60.33420409 131.72891235 60.33867645 C122.20187776 60.35236342 112.67485182 60.36202255 103.14780807 60.36587834 C92.15017528 60.37035348 81.15266712 60.387871 70.15507221 60.41687894 C61.65731458 60.43851429 53.15959194 60.44858372 44.66180706 60.44991946 C39.58599247 60.45096674 34.51029486 60.45685734 29.43450928 60.47473907 C24.65420752 60.49125034 19.87411022 60.4933604 15.09379005 60.48460007 C13.34310164 60.48383116 11.59240212 60.48815304 9.84174156 60.49805832 C-3.12282191 60.56708266 -12.36269581 59.91393307 -22.20547485 50.54495239 C-28.78082317 43.22455561 -29.76346346 35.37057278 -29.58047485 25.85745239 C-29.08803583 16.81362029 -25.05831763 11.1660079 -18.37734985 5.12698364 C-12.43499687 1.27819986 -6.96811701 -0.02188038 0 0 Z M-15.40078735 13.87307739 C-15.84680298 14.43124146 -16.2928186 14.98940552 -16.75234985 15.56448364 C-17.21383423 16.12006958 -17.6753186 16.67565552 -18.15078735 17.24807739 C-22.04725344 23.2168678 -21.98858012 29.20597637 -21.37734985 36.12698364 C-20.29441118 39.54709636 -20.29441118 39.54709636 -18.37734985 42.12698364 C-17.86172485 42.97260864 -17.34609985 43.81823364 -16.81484985 44.68948364 C-10.48547419 51.01885931 -3.57463108 52.65418415 5.22336841 52.75142419 C7.4813715 52.7489986 9.73835813 52.72204697 11.9961853 52.6946106 C13.63310706 52.69319798 15.27003198 52.69399627 16.9069519 52.69682312 C21.32385616 52.69825036 25.74007345 52.66897366 30.15681887 52.63395333 C34.78254948 52.60257365 39.40829802 52.59974997 44.03411865 52.59382629 C52.78168047 52.57832184 61.52892768 52.53733964 70.27635133 52.48707885 C80.24007342 52.43107929 90.20381099 52.40367225 100.16765141 52.37860167 C120.65282619 52.32642058 141.1377183 52.23854473 161.62265015 52.12698364 C161.62265015 49.15698364 161.62265015 46.18698364 161.62265015 43.12698364 C119.38265015 42.79698364 77.14265015 42.46698364 33.62265015 42.12698364 C32.62265015 37.12698364 32.62265015 37.12698364 32.62265015 35.12698364 C75.19265015 35.12698364 117.76265015 35.12698364 161.62265015 35.12698364 C161.62265015 31.82698364 161.62265015 28.52698364 161.62265015 25.12698364 C119.38265015 24.79698364 77.14265015 24.46698364 33.62265015 24.12698364 C32.62265015 19.12698364 32.62265015 19.12698364 32.62265015 17.12698364 C75.19265015 17.12698364 117.76265015 17.12698364 161.62265015 17.12698364 C161.62265015 14.15698364 161.62265015 11.18698364 161.62265015 8.12698364 C139.98676235 8.03349327 118.35090791 7.96298134 96.71485901 7.91973495 C86.66859174 7.89912012 76.62245007 7.8710201 66.57626343 7.82522583 C57.81879529 7.78532509 49.06141813 7.75954299 40.30386162 7.75062966 C35.66786307 7.74542041 31.03212476 7.73319921 26.39620972 7.70406342 C22.02956077 7.67684315 17.6632784 7.66855197 13.29655266 7.67455292 C11.69701073 7.67345563 10.09745611 7.66554106 8.49798775 7.65016174 C-0.74970593 7.56563034 -8.07467752 7.55112547 -15.40078735 13.87307739 Z " fill="#000000" transform="translate(29.377349853515625,17.873016357421875)"/>
</svg>
